<svg xmlns="http://www.w3.org/2000/svg" width="12" height="16" viewBox="0 0 12 16" fill="none">
  <path
    d="M5.04671 15.4508C7.2085 15.4508 8.52804 14.7202 9.62298 13.3435V15.1979H11.9532V5.50456C11.9532 1.40245 9.39837 0.250488 6.59085 0.250488C3.75525 0.250488 1.08811 1.48674 0.779278 4.83024H3.10952C3.33413 3.03205 4.45713 2.18915 6.47855 2.18915C8.72456 2.18915 9.62298 3.17254 9.62298 5.50456V6.57223H7.51733C3.75525 6.57223 0.161621 7.72419 0.161621 11.1239C0.161621 14.1302 2.32342 15.4508 5.04671 15.4508ZM5.27131 13.5964C3.22182 13.5964 2.49187 12.6411 2.49187 11.1239C2.49187 8.96044 4.65367 8.22993 7.60156 8.22993H9.62298V10.0562C9.62298 12.332 7.74193 13.5964 5.27131 13.5964Z"
    fill="#FFCD05" />
</svg>