<svg xmlns="http://www.w3.org/2000/svg" width="16" height="57" viewBox="0 0 16 57" fill="none">
    <path
        d="M7.62917 56.4507C9.77579 56.4507 11.8377 55.0939 12.685 53.6523V56.1963H15.0293V0H12.685V43.7873C11.8377 42.3457 10.3124 41.1586 7.85513 41.1586C3.78787 41.1586 0.963379 44.3527 0.963379 48.8753V49.1014C0.963379 53.7089 3.75962 56.4507 7.62917 56.4507ZM7.88338 54.5003C5.39782 54.5003 3.39244 52.7195 3.39244 48.9884V48.7622C3.39244 45.1724 5.14362 43.1089 8.08109 43.1089C10.9621 43.1089 12.7697 44.8897 12.7697 48.6774V48.9036C12.7697 52.6913 10.6231 54.5003 7.88338 54.5003Z"
        fill="#FFCD05" />
</svg>